<mxfile modified="2024-06-17T07:49:27.747Z" host="app.diagrams.net" agent="Mozilla/5.0 (Macintosh; Intel Mac OS X 10_15_7) AppleWebKit/537.36 (KHTML, like Gecko) Chrome/125.0.0.0 Safari/537.36 Edg/125.0.0.0" etag="FXB_huwcpIElw1ll-m0L" version="24.5.4" type="github">
  <diagram id="Ht1M8jgEwFfnCIfOTk4-" name="Page-1">
    <mxGraphModel dx="1538" dy="831" grid="1" gridSize="10" guides="1" tooltips="1" connect="1" arrows="1" fold="1" page="1" pageScale="1" pageWidth="1169" pageHeight="827" math="0" shadow="0">
      <root>
        <mxCell id="0" />
        <mxCell id="1" parent="0" />
        <mxCell id="UEzPUAAOIrF-is8g5C7q-128" style="edgeStyle=orthogonalEdgeStyle;rounded=0;orthogonalLoop=1;jettySize=auto;html=1;startArrow=open;startFill=0;endArrow=open;endFill=0;strokeWidth=2;strokeColor=#808080;movable=1;resizable=1;rotatable=1;deletable=1;editable=1;locked=0;connectable=1;" parent="1" edge="1">
          <mxGeometry relative="1" as="geometry">
            <Array as="points">
              <mxPoint x="307.5" y="362" />
            </Array>
            <mxPoint x="366" y="361.5" as="targetPoint" />
            <mxPoint x="166.5" y="361.5" as="sourcePoint" />
          </mxGeometry>
        </mxCell>
        <mxCell id="QtLQ6WKAVyeS1xCRJUcY-1" value="" style="shape=image;imageAspect=0;aspect=fixed;verticalLabelPosition=bottom;verticalAlign=top;image=data:image/svg+xml,PHN2ZyB4bWxucz0iaHR0cDovL3d3dy53My5vcmcvMjAwMC9zdmciIHZpZXdCb3g9IjAgMCA2NCA2NCIgZmlsbD0ibm9uZSIgaGVpZ2h0PSI2NCIgd2lkdGg9IjY0Ij4mI3hhOyAgPHBhdGggZD0ibTI0Ljg0MSA0OS4xNy0xMi44Ni0xNy4yIDEyLjc5LTE2LjcxLTIuNDctMy4zNy0xNC40MSAxOC44NS0uMDIgMi40MSAxNC40OCAxOS4zOSAyLjQ5LTMuMzdaIiBmaWxsPSIjRjYzIi8+JiN4YTsgIDxwYXRoIGQ9Ik0yOS4zMzEgNy45NWgtNC45NWwxNy44NSAyNC40LTE3LjQzIDIzLjZoNC45OGwxNy40Mi0yMy41OS0xNy44Ny0yNC40MVoiIGZpbGw9IiNGNjMiLz4mI3hhOyAgPHBhdGggZD0iTTM4LjkwMSA3Ljk1aC01LjAxbDE4LjEzIDI0LjExLTE4LjEzIDIzLjg5aDUuMDJsMTcuMjEtMjIuNjh2LTIuNDFMMzguOTAxIDcuOTVaIiBmaWxsPSIjRjYzIi8+JiN4YTs8L3N2Zz4=;movable=1;resizable=1;rotatable=1;deletable=1;editable=1;locked=0;connectable=1;" parent="1" vertex="1">
          <mxGeometry x="366" y="330" width="64" height="64" as="geometry" />
        </mxCell>
        <mxCell id="QtLQ6WKAVyeS1xCRJUcY-10" style="edgeStyle=orthogonalEdgeStyle;rounded=0;orthogonalLoop=1;jettySize=auto;html=1;startArrow=open;startFill=0;endArrow=open;endFill=0;strokeWidth=2;strokeColor=#808080;movable=1;resizable=1;rotatable=1;deletable=1;editable=1;locked=0;connectable=1;" parent="1" edge="1">
          <mxGeometry relative="1" as="geometry">
            <mxPoint x="380" y="496" as="sourcePoint" />
            <mxPoint x="380" y="404" as="targetPoint" />
            <Array as="points">
              <mxPoint x="380" y="496" />
            </Array>
          </mxGeometry>
        </mxCell>
        <mxCell id="GCyFHAuO927stUlhJs6e-2" value="&lt;span style=&quot;text-align: left; text-wrap: wrap;&quot;&gt;/v1/api/stocks/v1/segment/aggregated&lt;/span&gt;" style="text;html=1;align=center;verticalAlign=middle;resizable=0;points=[];autosize=1;strokeColor=none;fillColor=none;" parent="1" vertex="1">
          <mxGeometry x="155" y="330" width="230" height="30" as="geometry" />
        </mxCell>
        <mxCell id="GCyFHAuO927stUlhJs6e-3" value="" style="shape=cylinder3;whiteSpace=wrap;html=1;boundedLbl=1;backgroundOutline=1;size=15;" parent="1" vertex="1">
          <mxGeometry x="750" y="400" width="60" height="80" as="geometry" />
        </mxCell>
        <mxCell id="GCyFHAuO927stUlhJs6e-4" value="" style="shape=cylinder3;whiteSpace=wrap;html=1;boundedLbl=1;backgroundOutline=1;size=15;" parent="1" vertex="1">
          <mxGeometry x="750" y="240" width="60" height="80" as="geometry" />
        </mxCell>
        <mxCell id="GCyFHAuO927stUlhJs6e-7" value="" style="verticalLabelPosition=bottom;verticalAlign=top;html=1;shadow=0;dashed=0;strokeWidth=1;shape=mxgraph.android.phone2;strokeColor=#c0c0c0;" parent="1" vertex="1">
          <mxGeometry x="85" y="320" width="70" height="110" as="geometry" />
        </mxCell>
        <mxCell id="GCyFHAuO927stUlhJs6e-8" value="Data Aggregator" style="text;html=1;align=center;verticalAlign=middle;resizable=0;points=[];autosize=1;strokeColor=none;fillColor=none;" parent="1" vertex="1">
          <mxGeometry x="414.5" y="347" width="110" height="30" as="geometry" />
        </mxCell>
        <mxCell id="GCyFHAuO927stUlhJs6e-9" style="edgeStyle=orthogonalEdgeStyle;rounded=0;orthogonalLoop=1;jettySize=auto;html=1;startArrow=open;startFill=0;endArrow=open;endFill=0;strokeWidth=2;strokeColor=#808080;movable=1;resizable=1;rotatable=1;deletable=1;editable=1;locked=0;connectable=1;" parent="1" edge="1">
          <mxGeometry relative="1" as="geometry">
            <mxPoint x="420" y="320" as="sourcePoint" />
            <mxPoint x="732" y="278" as="targetPoint" />
            <Array as="points">
              <mxPoint x="420" y="277.82" />
            </Array>
          </mxGeometry>
        </mxCell>
        <mxCell id="GCyFHAuO927stUlhJs6e-12" value="" style="shape=image;imageAspect=0;aspect=fixed;verticalLabelPosition=bottom;verticalAlign=top;image=data:image/svg+xml,PHN2ZyB4bWxucz0iaHR0cDovL3d3dy53My5vcmcvMjAwMC9zdmciIHZpZXdCb3g9IjAgMCA2NCA2NCIgZmlsbD0ibm9uZSIgaGVpZ2h0PSI2NCIgd2lkdGg9IjY0Ij4mI3hhOyAgPHBhdGggZD0ibTI0Ljg0MSA0OS4xNy0xMi44Ni0xNy4yIDEyLjc5LTE2LjcxLTIuNDctMy4zNy0xNC40MSAxOC44NS0uMDIgMi40MSAxNC40OCAxOS4zOSAyLjQ5LTMuMzdaIiBmaWxsPSIjRjYzIi8+JiN4YTsgIDxwYXRoIGQ9Ik0yOS4zMzEgNy45NWgtNC45NWwxNy44NSAyNC40LTE3LjQzIDIzLjZoNC45OGwxNy40Mi0yMy41OS0xNy44Ny0yNC40MVoiIGZpbGw9IiNGNjMiLz4mI3hhOyAgPHBhdGggZD0iTTM4LjkwMSA3Ljk1aC01LjAxbDE4LjEzIDI0LjExLTE4LjEzIDIzLjg5aDUuMDJsMTcuMjEtMjIuNjh2LTIuNDFMMzguOTAxIDcuOTVaIiBmaWxsPSIjRjYzIi8+JiN4YTs8L3N2Zz4=;movable=1;resizable=1;rotatable=1;deletable=1;editable=1;locked=0;connectable=1;" parent="1" vertex="1">
          <mxGeometry x="350.5" y="510" width="64" height="64" as="geometry" />
        </mxCell>
        <mxCell id="GCyFHAuO927stUlhJs6e-13" value="Save to DB" style="text;html=1;align=center;verticalAlign=middle;resizable=1;points=[];autosize=1;strokeColor=none;fillColor=none;movable=1;rotatable=1;deletable=1;editable=1;locked=0;connectable=1;" parent="1" vertex="1">
          <mxGeometry x="280.75" y="610" width="79.5" height="30" as="geometry" />
        </mxCell>
        <mxCell id="GCyFHAuO927stUlhJs6e-14" value="" style="strokeWidth=2;html=1;shape=mxgraph.flowchart.database;whiteSpace=wrap;movable=1;resizable=1;rotatable=1;deletable=1;editable=1;locked=0;connectable=1;" parent="1" vertex="1">
          <mxGeometry x="290.5" y="640" width="60" height="60" as="geometry" />
        </mxCell>
        <mxCell id="GCyFHAuO927stUlhJs6e-15" value="Workers KV" style="text;html=1;align=center;verticalAlign=middle;resizable=1;points=[];autosize=1;strokeColor=none;fillColor=none;movable=1;rotatable=1;deletable=1;editable=1;locked=0;connectable=1;" parent="1" vertex="1">
          <mxGeometry x="276" y="710" width="90" height="30" as="geometry" />
        </mxCell>
        <mxCell id="GCyFHAuO927stUlhJs6e-17" style="edgeStyle=orthogonalEdgeStyle;rounded=0;orthogonalLoop=1;jettySize=auto;html=1;startArrow=open;startFill=0;endArrow=open;endFill=0;strokeWidth=2;strokeColor=#808080;movable=1;resizable=1;rotatable=1;deletable=1;editable=1;locked=0;connectable=1;" parent="1" edge="1">
          <mxGeometry relative="1" as="geometry">
            <mxPoint x="420" y="404" as="sourcePoint" />
            <mxPoint x="732" y="442" as="targetPoint" />
            <Array as="points">
              <mxPoint x="420" y="441.82" />
            </Array>
          </mxGeometry>
        </mxCell>
        <mxCell id="GCyFHAuO927stUlhJs6e-19" value="/v1/api/stocks_data/v1/exchange/{exchange}/segment/{symbol}/timestamp/{timestamp}" style="text;html=1;align=center;verticalAlign=middle;resizable=0;points=[];autosize=1;strokeColor=none;fillColor=none;" parent="1" vertex="1">
          <mxGeometry x="540" y="210" width="490" height="30" as="geometry" />
        </mxCell>
        <mxCell id="GCyFHAuO927stUlhJs6e-21" value="AWS" style="text;html=1;align=center;verticalAlign=middle;resizable=0;points=[];autosize=1;strokeColor=none;fillColor=none;" parent="1" vertex="1">
          <mxGeometry x="750" y="377" width="50" height="30" as="geometry" />
        </mxCell>
        <mxCell id="GCyFHAuO927stUlhJs6e-26" value="&lt;div style=&quot;&quot;&gt;[&lt;/div&gt;&lt;div style=&quot;&quot;&gt;{&lt;/div&gt;&lt;div style=&quot;&quot;&gt;&amp;nbsp; &quot;exchangeAggReqMap&quot;: {&lt;/div&gt;&lt;div style=&quot;&quot;&gt;&amp;nbsp; &amp;nbsp; &quot;NSE&quot;: {&lt;/div&gt;&lt;div style=&quot;&quot;&gt;&amp;nbsp; &amp;nbsp; &amp;nbsp; &quot;indexSymbolList&quot;: [&quot;NIFTY 50&quot;, &quot;NIFTY BANK&quot;],&lt;/div&gt;&lt;div style=&quot;&quot;&gt;&amp;nbsp; &amp;nbsp; &amp;nbsp; &quot;priceSymbolList&quot;: [&quot;RELIANCE&quot;, &quot;TCS&quot;]&lt;/div&gt;&lt;div style=&quot;&quot;&gt;&amp;nbsp; &amp;nbsp; },&lt;/div&gt;&lt;div style=&quot;&quot;&gt;&amp;nbsp; &amp;nbsp; &quot;BSE&quot;: {&lt;/div&gt;&lt;div style=&quot;&quot;&gt;&amp;nbsp; &amp;nbsp; &amp;nbsp; &quot;indexSymbolList&quot;: [&quot;SENSEX&quot;],&lt;/div&gt;&lt;div style=&quot;&quot;&gt;&amp;nbsp; &amp;nbsp; &amp;nbsp; &quot;priceSymbolList&quot;: [&quot;HDFC&quot;, &quot;INFY&quot;]&lt;/div&gt;&lt;div style=&quot;&quot;&gt;&amp;nbsp; &amp;nbsp; }&lt;/div&gt;&lt;div style=&quot;&quot;&gt;&amp;nbsp; }&lt;/div&gt;&lt;div style=&quot;&quot;&gt;}&lt;/div&gt;&lt;div style=&quot;&quot;&gt;]&lt;/div&gt;" style="text;html=1;align=left;verticalAlign=middle;whiteSpace=wrap;rounded=0;" parent="1" vertex="1">
          <mxGeometry x="20" y="480" width="290" height="200" as="geometry" />
        </mxCell>
        <mxCell id="GCyFHAuO927stUlhJs6e-27" value="Example :&amp;nbsp;" style="text;html=1;align=center;verticalAlign=middle;resizable=0;points=[];autosize=1;strokeColor=none;fillColor=none;" parent="1" vertex="1">
          <mxGeometry x="10" y="438" width="80" height="30" as="geometry" />
        </mxCell>
        <mxCell id="GCyFHAuO927stUlhJs6e-28" value="POST" style="text;html=1;align=center;verticalAlign=middle;resizable=0;points=[];autosize=1;strokeColor=none;fillColor=none;" parent="1" vertex="1">
          <mxGeometry x="155" y="300" width="60" height="30" as="geometry" />
        </mxCell>
        <mxCell id="GCyFHAuO927stUlhJs6e-29" value="&lt;div&gt;/v1/api/stocks_data/v1/exchange/NSE/segment//RELIANCE/timestamp/1623931200&lt;/div&gt;&lt;div&gt;&lt;br&gt;&lt;/div&gt;" style="text;html=1;align=center;verticalAlign=middle;resizable=0;points=[];autosize=1;strokeColor=none;fillColor=none;" parent="1" vertex="1">
          <mxGeometry x="535" y="480" width="470" height="40" as="geometry" />
        </mxCell>
        <mxCell id="GCyFHAuO927stUlhJs6e-30" value="USE case: Fetch live stock and index price data and serve it to users globally" style="text;html=1;align=center;verticalAlign=middle;resizable=0;points=[];autosize=1;strokeColor=none;fillColor=none;" parent="1" vertex="1">
          <mxGeometry x="70" y="100" width="430" height="30" as="geometry" />
        </mxCell>
        <mxCell id="GCyFHAuO927stUlhJs6e-31" value="" style="strokeWidth=2;html=1;shape=mxgraph.flowchart.database;whiteSpace=wrap;movable=1;resizable=1;rotatable=1;deletable=1;editable=1;locked=0;connectable=1;" parent="1" vertex="1">
          <mxGeometry x="410" y="640" width="60" height="60" as="geometry" />
        </mxCell>
        <mxCell id="GCyFHAuO927stUlhJs6e-32" value="Save to Edge cache" style="text;html=1;align=center;verticalAlign=middle;resizable=0;points=[];autosize=1;strokeColor=none;fillColor=none;" parent="1" vertex="1">
          <mxGeometry x="394.5" y="610" width="130" height="30" as="geometry" />
        </mxCell>
        <mxCell id="GCyFHAuO927stUlhJs6e-36" style="edgeStyle=orthogonalEdgeStyle;rounded=0;orthogonalLoop=1;jettySize=auto;html=1;startArrow=open;startFill=0;endArrow=open;endFill=0;strokeWidth=2;strokeColor=#808080;movable=1;resizable=1;rotatable=1;deletable=1;editable=1;locked=0;connectable=1;exitX=0.381;exitY=0;exitDx=0;exitDy=0;exitPerimeter=0;" parent="1" source="GCyFHAuO927stUlhJs6e-32" edge="1">
          <mxGeometry relative="1" as="geometry">
            <mxPoint x="480" y="562" as="sourcePoint" />
            <mxPoint x="420" y="540" as="targetPoint" />
            <Array as="points">
              <mxPoint x="444" y="540" />
            </Array>
          </mxGeometry>
        </mxCell>
        <mxCell id="GCyFHAuO927stUlhJs6e-37" style="edgeStyle=orthogonalEdgeStyle;rounded=0;orthogonalLoop=1;jettySize=auto;html=1;startArrow=open;startFill=0;endArrow=open;endFill=0;strokeWidth=2;strokeColor=#808080;movable=1;resizable=1;rotatable=1;deletable=1;editable=1;locked=0;connectable=1;exitX=0.381;exitY=0;exitDx=0;exitDy=0;exitPerimeter=0;" parent="1" edge="1">
          <mxGeometry relative="1" as="geometry">
            <mxPoint x="324" y="610" as="sourcePoint" />
            <mxPoint x="350" y="540" as="targetPoint" />
            <Array as="points">
              <mxPoint x="324" y="540" />
            </Array>
          </mxGeometry>
        </mxCell>
        <mxCell id="DLQEu5snzQdK2y0WpKy2-1" value="Third party" style="text;html=1;align=center;verticalAlign=middle;resizable=0;points=[];autosize=1;strokeColor=none;fillColor=none;" vertex="1" parent="1">
          <mxGeometry x="740" y="317" width="80" height="30" as="geometry" />
        </mxCell>
      </root>
    </mxGraphModel>
  </diagram>
</mxfile>
